<mxfile host="app.diagrams.net" modified="2020-12-07T20:00:40.384Z" agent="5.0 (Macintosh; Intel Mac OS X 10_15_7) AppleWebKit/537.36 (KHTML, like Gecko) Chrome/87.0.4280.67 Safari/537.36" etag="MbS4kQfNAblPsnxMfSkR" version="13.11.0" type="github">
  <diagram id="vUDh-G8EkGbGRyXRI46a" name="Page-1">
    <mxGraphModel dx="1113" dy="722" grid="1" gridSize="10" guides="1" tooltips="1" connect="1" arrows="1" fold="1" page="1" pageScale="1" pageWidth="827" pageHeight="1169" math="0" shadow="0">
      <root>
        <mxCell id="0" />
        <mxCell id="1" parent="0" />
        <mxCell id="u-oXT3zJMP2zGsv-D8c_-4" style="edgeStyle=orthogonalEdgeStyle;rounded=0;orthogonalLoop=1;jettySize=auto;html=1;exitX=0.5;exitY=1;exitDx=0;exitDy=0;entryX=0.5;entryY=0;entryDx=0;entryDy=0;" edge="1" parent="1" source="u-oXT3zJMP2zGsv-D8c_-1" target="u-oXT3zJMP2zGsv-D8c_-3">
          <mxGeometry relative="1" as="geometry" />
        </mxCell>
        <mxCell id="u-oXT3zJMP2zGsv-D8c_-1" value="Начало" style="ellipse;whiteSpace=wrap;html=1;" vertex="1" parent="1">
          <mxGeometry x="340" y="20" width="80" height="80" as="geometry" />
        </mxCell>
        <mxCell id="u-oXT3zJMP2zGsv-D8c_-2" value="Конец" style="ellipse;whiteSpace=wrap;html=1;" vertex="1" parent="1">
          <mxGeometry x="350" y="640" width="80" height="80" as="geometry" />
        </mxCell>
        <mxCell id="u-oXT3zJMP2zGsv-D8c_-3" value="Объявление 3 переменных с числами" style="rounded=1;whiteSpace=wrap;html=1;" vertex="1" parent="1">
          <mxGeometry x="320" y="150" width="120" height="60" as="geometry" />
        </mxCell>
        <mxCell id="u-oXT3zJMP2zGsv-D8c_-8" style="edgeStyle=orthogonalEdgeStyle;rounded=0;orthogonalLoop=1;jettySize=auto;html=1;exitX=0;exitY=0.5;exitDx=0;exitDy=0;entryX=0.5;entryY=0;entryDx=0;entryDy=0;fillColor=#00994D;" edge="1" parent="1" source="u-oXT3zJMP2zGsv-D8c_-5">
          <mxGeometry relative="1" as="geometry">
            <mxPoint x="240" y="320" as="targetPoint" />
          </mxGeometry>
        </mxCell>
        <mxCell id="u-oXT3zJMP2zGsv-D8c_-20" style="edgeStyle=orthogonalEdgeStyle;rounded=0;orthogonalLoop=1;jettySize=auto;html=1;" edge="1" parent="1" source="u-oXT3zJMP2zGsv-D8c_-5" target="u-oXT3zJMP2zGsv-D8c_-19">
          <mxGeometry relative="1" as="geometry" />
        </mxCell>
        <mxCell id="u-oXT3zJMP2zGsv-D8c_-5" value="1 число больше 2?" style="rhombus;whiteSpace=wrap;html=1;" vertex="1" parent="1">
          <mxGeometry x="340" y="220" width="80" height="80" as="geometry" />
        </mxCell>
        <mxCell id="u-oXT3zJMP2zGsv-D8c_-10" value="true" style="text;html=1;strokeColor=none;fillColor=none;align=center;verticalAlign=middle;whiteSpace=wrap;rounded=0;" vertex="1" parent="1">
          <mxGeometry x="270" y="240" width="40" height="20" as="geometry" />
        </mxCell>
        <mxCell id="u-oXT3zJMP2zGsv-D8c_-11" value="false" style="text;html=1;strokeColor=none;fillColor=none;align=center;verticalAlign=middle;whiteSpace=wrap;rounded=0;" vertex="1" parent="1">
          <mxGeometry x="470" y="240" width="40" height="20" as="geometry" />
        </mxCell>
        <mxCell id="u-oXT3zJMP2zGsv-D8c_-14" style="edgeStyle=orthogonalEdgeStyle;rounded=0;orthogonalLoop=1;jettySize=auto;html=1;exitX=0;exitY=0.5;exitDx=0;exitDy=0;entryX=0.568;entryY=-0.092;entryDx=0;entryDy=0;entryPerimeter=0;fillColor=#00CC00;" edge="1" parent="1" source="u-oXT3zJMP2zGsv-D8c_-12" target="u-oXT3zJMP2zGsv-D8c_-16">
          <mxGeometry relative="1" as="geometry">
            <mxPoint x="110" y="469.9999999999998" as="targetPoint" />
          </mxGeometry>
        </mxCell>
        <mxCell id="u-oXT3zJMP2zGsv-D8c_-29" style="edgeStyle=orthogonalEdgeStyle;rounded=0;orthogonalLoop=1;jettySize=auto;html=1;entryX=0;entryY=0.5;entryDx=0;entryDy=0;strokeColor=#FF0000;" edge="1" parent="1" source="u-oXT3zJMP2zGsv-D8c_-12" target="u-oXT3zJMP2zGsv-D8c_-24">
          <mxGeometry relative="1" as="geometry" />
        </mxCell>
        <mxCell id="u-oXT3zJMP2zGsv-D8c_-12" value="&lt;span&gt;1 число больше 3?&lt;/span&gt;" style="rhombus;whiteSpace=wrap;html=1;" vertex="1" parent="1">
          <mxGeometry x="200" y="320" width="80" height="80" as="geometry" />
        </mxCell>
        <mxCell id="u-oXT3zJMP2zGsv-D8c_-15" value="true" style="text;html=1;strokeColor=none;fillColor=none;align=center;verticalAlign=middle;whiteSpace=wrap;rounded=0;" vertex="1" parent="1">
          <mxGeometry x="130" y="340" width="40" height="20" as="geometry" />
        </mxCell>
        <mxCell id="u-oXT3zJMP2zGsv-D8c_-31" style="edgeStyle=orthogonalEdgeStyle;rounded=0;orthogonalLoop=1;jettySize=auto;html=1;entryX=0;entryY=0;entryDx=0;entryDy=0;strokeColor=#00994D;fillColor=#00994D;" edge="1" parent="1" source="u-oXT3zJMP2zGsv-D8c_-16" target="u-oXT3zJMP2zGsv-D8c_-2">
          <mxGeometry relative="1" as="geometry" />
        </mxCell>
        <mxCell id="u-oXT3zJMP2zGsv-D8c_-16" value="Напечатать 1 число" style="rounded=1;whiteSpace=wrap;html=1;" vertex="1" parent="1">
          <mxGeometry x="100" y="480" width="120" height="60" as="geometry" />
        </mxCell>
        <mxCell id="u-oXT3zJMP2zGsv-D8c_-22" style="edgeStyle=orthogonalEdgeStyle;rounded=0;orthogonalLoop=1;jettySize=auto;html=1;entryX=0.5;entryY=0;entryDx=0;entryDy=0;strokeColor=#3333FF;" edge="1" parent="1" source="u-oXT3zJMP2zGsv-D8c_-19" target="u-oXT3zJMP2zGsv-D8c_-21">
          <mxGeometry relative="1" as="geometry" />
        </mxCell>
        <mxCell id="u-oXT3zJMP2zGsv-D8c_-27" style="edgeStyle=orthogonalEdgeStyle;rounded=0;orthogonalLoop=1;jettySize=auto;html=1;entryX=0.661;entryY=-0.024;entryDx=0;entryDy=0;entryPerimeter=0;" edge="1" parent="1" source="u-oXT3zJMP2zGsv-D8c_-19" target="u-oXT3zJMP2zGsv-D8c_-24">
          <mxGeometry relative="1" as="geometry" />
        </mxCell>
        <mxCell id="u-oXT3zJMP2zGsv-D8c_-19" value="2 число больше 3?" style="rhombus;whiteSpace=wrap;html=1;" vertex="1" parent="1">
          <mxGeometry x="500" y="320" width="80" height="80" as="geometry" />
        </mxCell>
        <mxCell id="u-oXT3zJMP2zGsv-D8c_-23" style="edgeStyle=orthogonalEdgeStyle;rounded=0;orthogonalLoop=1;jettySize=auto;html=1;strokeColor=#00CC00;" edge="1" parent="1" source="u-oXT3zJMP2zGsv-D8c_-21" target="u-oXT3zJMP2zGsv-D8c_-2">
          <mxGeometry relative="1" as="geometry" />
        </mxCell>
        <mxCell id="u-oXT3zJMP2zGsv-D8c_-21" value="Напечатать 2 число" style="rounded=1;whiteSpace=wrap;html=1;" vertex="1" parent="1">
          <mxGeometry x="440" y="530" width="120" height="60" as="geometry" />
        </mxCell>
        <mxCell id="u-oXT3zJMP2zGsv-D8c_-32" style="edgeStyle=orthogonalEdgeStyle;rounded=0;orthogonalLoop=1;jettySize=auto;html=1;entryX=1;entryY=0.5;entryDx=0;entryDy=0;strokeColor=#00CC66;fillColor=#00FF00;" edge="1" parent="1" source="u-oXT3zJMP2zGsv-D8c_-24" target="u-oXT3zJMP2zGsv-D8c_-2">
          <mxGeometry relative="1" as="geometry">
            <Array as="points">
              <mxPoint x="650" y="680" />
            </Array>
          </mxGeometry>
        </mxCell>
        <mxCell id="u-oXT3zJMP2zGsv-D8c_-24" value="Напечатать 3 число" style="rounded=1;whiteSpace=wrap;html=1;" vertex="1" parent="1">
          <mxGeometry x="590" y="460" width="120" height="60" as="geometry" />
        </mxCell>
        <mxCell id="u-oXT3zJMP2zGsv-D8c_-33" value="true" style="text;html=1;strokeColor=none;fillColor=none;align=center;verticalAlign=middle;whiteSpace=wrap;rounded=0;" vertex="1" parent="1">
          <mxGeometry x="500" y="420" width="40" height="20" as="geometry" />
        </mxCell>
        <mxCell id="u-oXT3zJMP2zGsv-D8c_-36" value="false" style="text;html=1;strokeColor=none;fillColor=none;align=center;verticalAlign=middle;whiteSpace=wrap;rounded=0;" vertex="1" parent="1">
          <mxGeometry x="330" y="340" width="40" height="20" as="geometry" />
        </mxCell>
        <mxCell id="u-oXT3zJMP2zGsv-D8c_-37" value="false" style="text;html=1;strokeColor=none;fillColor=none;align=center;verticalAlign=middle;whiteSpace=wrap;rounded=0;" vertex="1" parent="1">
          <mxGeometry x="600" y="340" width="40" height="20" as="geometry" />
        </mxCell>
      </root>
    </mxGraphModel>
  </diagram>
</mxfile>
